<svg xmlns="http://www.w3.org/2000/svg" width="32" height="32"><path fill="#12AF0A" d="M0 0h32v32H0z"/><path fill-rule="evenodd" clip-rule="evenodd" fill="#FFF" d="M16.21 4.41C9.973 4.41 4.917 9.465 4.917 15.7c0 2.134.592 4.13 1.62 5.832L4.5 27.59l6.25-2.002c1.618.895 3.478 1.404 5.46 1.404 6.234 0 11.29-5.055 11.29-11.29 0-6.237-5.056-11.292-11.29-11.292zm0 20.69c-1.91 0-3.69-.57-5.173-1.553l-3.61 1.156 1.173-3.49c-1.126-1.55-1.79-3.454-1.79-5.512 0-5.182 4.217-9.4 9.4-9.4 5.183 0 9.397 4.22 9.397 9.4 0 5.185-4.214 9.4-9.398 9.4zm5.293-6.832c-.284-.155-1.673-.906-1.934-1.012-.262-.106-.452-.16-.655.12s-.78.91-.954 1.096c-.175.186-.344.203-.627.048-.282-.154-1.2-.494-2.264-1.517-.83-.795-1.372-1.76-1.53-2.055-.157-.295 0-.445.15-.584.134-.124.3-.326.45-.488.15-.163.203-.28.306-.47.104-.19.06-.36-.005-.506-.065-.147-.59-1.587-.808-2.173-.22-.586-.462-.498-.63-.505-.17-.007-.36-.038-.553-.045-.192-.007-.508.054-.782.332-.274.277-1.046.946-1.1 2.365-.052 1.418.93 2.826 1.066 3.023.136.2 1.873 3.272 4.76 4.537 2.887 1.264 2.9.878 3.43.85.53-.027 1.733-.633 2-1.297.265-.664.286-1.24.218-1.363-.067-.123-.257-.203-.54-.357z"/></svg>