<svg xmlns="http://www.w3.org/2000/svg" width="90" height="90" viewBox="0 0 400 400"><g fill="#fff"><path d="M170.243 212.478h2.57c-.717 0-1.398-.293-2.018-.97-20.36-19.77-35.866-57.77-35.866-88.846C134.93 78.666 168.366 50 199.984 50c31.612 0 63.366 31.41 63.366 75.36 0 31.06-17.16 68.368-38.41 87.434 4.37 17.943 28.28 23.85 77.556 38.372 54.785 16.204 49.038 71.55 45.207 83.146-6.367 19.1-290.285 22.66-295.63 0-1.2-9.408-13.76-67.82 41.037-84.024 47.932-14.164 71.81-16.395 77.133-37.81z"/><path d="M172.813 214.304h-2.57c.215-.62.373-1.206.542-1.883.63.678 1.323 1.264 2.028 1.884z"/></g></svg>