<?xml version="1.0" encoding="utf-8"?>
<!-- Generator: Adobe Illustrator 16.0.0, SVG Export Plug-In . SVG Version: 6.00 Build 0)  -->
<!DOCTYPE svg PUBLIC "-//W3C//DTD SVG 1.1//EN" "http://www.w3.org/Graphics/SVG/1.1/DTD/svg11.dtd">
<svg version="1.1" id="Layer_1" xmlns="http://www.w3.org/2000/svg" xmlns:xlink="http://www.w3.org/1999/xlink" x="0px" y="0px"
	 width="88px" height="100px" viewBox="0 0 88 100" enable-background="new 0 0 88 100" xml:space="preserve">
<path fill="#404641" d="M2,33.477V90.32C2,94.562,5.399,98,9.591,98h68.318c4.192,0,7.591-3.438,7.591-7.68V33.477H2z
	 M22.875,92.307H7.693V77.125h15.182V92.307z M22.875,73.329H7.693V58.146h15.182V73.329z M22.875,54.354H7.693V39.17h15.182V54.354
	z M41.852,92.307H26.67V77.125h15.182V92.307z M41.852,73.329H26.67V58.146h15.182V73.329z M41.852,54.354H26.67V39.17h15.182
	V54.354z M60.829,92.307H45.648V77.125h15.181V92.307z M60.829,73.329H45.648V58.146h15.181V73.329z M60.829,54.354H45.648V39.17
	h15.181V54.354z M79.807,92.307H64.625V77.125h15.182V92.307z M79.807,73.329H64.625V58.146h15.182V73.329z M79.807,54.354H64.625
	V39.17h15.182V54.354z"/>
<path fill="#404641" d="M77.909,14.5H65.574V5.96c0-1.573-1.275-2.847-2.848-2.847c-1.574,0-2.847,1.274-2.847,2.847v8.54H27.619
	V5.96c0-1.573-1.275-2.847-2.846-2.847c-1.573,0-2.847,1.274-2.847,2.847v8.54H9.591C5.399,14.5,2,17.938,2,22.179v6.554l0,0v0.949
	h83.5v-0.949l0,0v-6.554C85.5,17.938,82.102,14.5,77.909,14.5z M24.773,27.784c-3.144,0-5.693-2.55-5.693-5.693
	c0-2.105,1.147-3.939,2.847-4.924v4.924c0,1.573,1.274,2.847,2.847,2.847c1.571,0,2.846-1.274,2.846-2.847v-4.925
	c1.701,0.985,2.847,2.82,2.847,4.925C30.466,25.234,27.917,27.784,24.773,27.784z M62.729,27.784c-3.145,0-5.692-2.55-5.692-5.693
	c0-2.105,1.146-3.939,2.847-4.924v4.924c0,1.573,1.271,2.847,2.848,2.847c1.57,0,2.848-1.274,2.848-2.847v-4.925
	c1.699,0.985,2.847,2.82,2.847,4.925C68.421,25.234,65.872,27.784,62.729,27.784z"/>
</svg>
