<?xml version="1.0" encoding="utf-8"?>
<!-- Generator: Adobe Illustrator 15.0.0, SVG Export Plug-In . SVG Version: 6.00 Build 0)  -->
<!DOCTYPE svg PUBLIC "-//W3C//DTD SVG 1.1//EN" "http://www.w3.org/Graphics/SVG/1.1/DTD/svg11.dtd">
<svg version="1.1" id="Layer_1" xmlns="http://www.w3.org/2000/svg" xmlns:xlink="http://www.w3.org/1999/xlink" x="0px" y="0px"
	 width="100px" height="100px" viewBox="0 0 100 100" enable-background="new 0 0 100 100" xml:space="preserve">
<g>
	<g>
		<path fill="#62A0CC" d="M85.246,21.964c0-2.379-1.949-4.326-4.339-4.326l-61.783-0.216c-2.37,0-4.318,1.96-4.318,4.327v12.109
			l0.2,0.004v51.023h70.037v-3.098V34.069h0.202L85.246,21.964L85.246,21.964z M78.852,78.686H21.207v-43.24h57.645V78.686z"/>
		<g>
			<path fill="#62A0CC" d="M39.854,47.81c0,0.979-0.989,1.768-2.219,1.768H31.07c-1.213,0-2.211-0.789-2.211-1.768v-5.224
				c0-0.983,0.998-1.772,2.211-1.772h6.565c1.229,0,2.219,0.789,2.219,1.772V47.81z"/>
			<path fill="#62A0CC" d="M55.137,47.81c0,0.979-0.982,1.768-2.221,1.768h-6.558c-1.225,0-2.23-0.789-2.23-1.768v-5.224
				c0-0.983,1.005-1.772,2.23-1.772h6.558c1.236,0,2.221,0.789,2.221,1.772V47.81z"/>
			<path fill="#62A0CC" d="M70.616,47.81c0,0.979-0.995,1.768-2.229,1.768h-6.541c-1.246,0-2.24-0.789-2.24-1.768v-5.224
				c0-0.983,0.994-1.772,2.24-1.772h6.541c1.233,0,2.229,0.789,2.229,1.772V47.81z"/>
			<path fill="#62A0CC" d="M39.854,59.3c0,0.979-0.989,1.783-2.219,1.783H31.07c-1.213,0-2.211-0.806-2.211-1.783v-5.222
				c0-0.975,0.998-1.758,2.211-1.758l6.565-0.014c1.229,0,2.219,0.797,2.219,1.771V59.3z"/>
			<path fill="#62A0CC" d="M55.137,59.3c0,0.99-0.982,1.783-2.221,1.783h-6.558c-1.225,0-2.23-0.806-2.23-1.783v-5.222
				c0-0.975,1.005-1.771,2.23-1.771h6.558c1.236,0,2.221,0.797,2.221,1.771V59.3z"/>
			<path fill="#62A0CC" d="M70.616,59.3c0,0.99-0.995,1.783-2.229,1.783h-6.541c-1.246,0-2.24-0.793-2.24-1.783v-5.222
				c0-0.975,0.994-1.771,2.24-1.771h6.541c1.233,0,2.229,0.797,2.229,1.771V59.3z"/>
			<path fill="#62A0CC" d="M39.854,70.796c0,0.972-0.989,1.769-2.219,1.769H31.07c-1.213,0-2.211-0.797-2.211-1.769V65.57
				c0-0.988,0.998-1.779,2.211-1.779h6.565c1.229,0,2.219,0.791,2.219,1.779V70.796z"/>
			<path fill="#62A0CC" d="M55.137,70.796c0,0.972-0.982,1.769-2.221,1.769h-6.558c-1.225,0-2.23-0.797-2.23-1.769V65.57
				c0-0.988,1.005-1.779,2.23-1.779h6.558c1.236,0,2.221,0.791,2.221,1.779V70.796z"/>
			<path fill="#62A0CC" d="M70.616,70.796c0,0.972-0.995,1.769-2.229,1.769h-6.541c-1.246,0-2.24-0.797-2.24-1.769V65.57
				c0-0.976,0.994-1.779,2.24-1.779h6.541c1.233,0,2.229,0.805,2.229,1.779V70.796z"/>
		</g>
	</g>
</g>
</svg>
